<svg version="1.1" id="Layer_1" xmlns="http://www.w3.org/2000/svg" x="0" y="0" viewBox="0 0 264 280" xml:space="preserve" enable-background="new 0 0 264 280"><style>.st0,.st2{fill-rule:evenodd;clip-rule:evenodd;fill:#e6e6e6}.st2{fill:#fff}.st17{fill-opacity:.16}.st17,.st23,.st24{fill-rule:evenodd;clip-rule:evenodd}.st23{fill:#ff4f6d}.st24{fill-opacity:.6}</style><g id="Circle" transform="translate(12 40)"><circle class="st0" cx="120" cy="120" r="120" id="Circle-Background"/><defs><filter id="Adobe_OpacityMaskFilter" filterUnits="userSpaceOnUse" x="0" y="0" width="240" height="240"><feColorMatrix values="1 0 0 0 0 0 1 0 0 0 0 0 1 0 0 0 0 0 1 0"/></filter></defs><mask maskUnits="userSpaceOnUse" x="0" y="0" width="240" height="240" id="mask-2_1_"><g filter="url(#Adobe_OpacityMaskFilter)"><circle id="path-1_1_" class="st2" cx="120" cy="120" r="120"/></g></mask><g mask="url(#mask-2_1_)"><path fill-rule="evenodd" clip-rule="evenodd" fill="#2c3e50" d="M0 0h240v240H0z"/></g></g><defs><filter id="Adobe_OpacityMaskFilter_1_" filterUnits="userSpaceOnUse" x="-1" y="0" width="265" height="280"><feColorMatrix values="1 0 0 0 0 0 1 0 0 0 0 0 1 0 0 0 0 0 1 0"/></filter></defs><mask maskUnits="userSpaceOnUse" x="-1" y="0" width="265" height="280" id="mask-4_1_"><g filter="url(#Adobe_OpacityMaskFilter_1_)"><path id="path-3_1_" class="st2" d="M12 160c0 66.3 53.7 120 120 120s120-53.7 120-120h12V0H0v160h12z"/></g></mask><g id="Avataaar" mask="url(#mask-4_1_)"><g id="Body" transform="translate(32 36)"><path d="M124 144.6V163h4c39.8 0 72 32.2 72 72v9H0v-9c0-39.8 32.2-72 72-72h4v-18.4c-17.2-8.2-29.6-24.9-31.7-44.7C38.5 99.1 34 94.1 34 88V74c0-5.9 4.3-10.9 10-11.8V56c0-30.9 25.1-56 56-56s56 25.1 56 56v6.2c5.7 1 10 5.9 10 11.8v14c0 6.1-4.5 11.1-10.3 11.9-2.1 19.8-14.5 36.5-31.7 44.7z" fill-rule="evenodd" clip-rule="evenodd" fill="#d0c6ac"/><defs><filter id="Adobe_OpacityMaskFilter_2_" filterUnits="userSpaceOnUse" x="-32" y="0" width="264" height="244"><feColorMatrix values="1 0 0 0 0 0 1 0 0 0 0 0 1 0 0 0 0 0 1 0"/></filter></defs><mask maskUnits="userSpaceOnUse" x="-32" y="0" width="264" height="244" id="mask-6_1_"><g filter="url(#Adobe_OpacityMaskFilter_2_)"><path id="path-5_1_" class="st2" d="M124 144.6V163h4c39.8 0 72 32.2 72 72v9H0v-9c0-39.8 32.2-72 72-72h4v-18.4c-17.2-8.2-29.6-24.9-31.7-44.7C38.5 99.1 34 94.1 34 88V74c0-5.9 4.3-10.9 10-11.8V56c0-30.9 25.1-56 56-56s56 25.1 56 56v6.2c5.7 1 10 5.9 10 11.8v14c0 6.1-4.5 11.1-10.3 11.9-2.1 19.8-14.5 36.5-31.7 44.7z"/></g></mask><g mask="url(#mask-6_1_)"><path fill-rule="evenodd" clip-rule="evenodd" fill="#edb98a" d="M0 0h264v244H0z" transform="translate(-32)" id="Color"/></g><defs><filter id="Adobe_OpacityMaskFilter_3_" filterUnits="userSpaceOnUse" x="44" y="79" width="112" height="79"><feColorMatrix values="1 0 0 0 0 0 1 0 0 0 0 0 1 0 0 0 0 0 1 0"/></filter></defs><mask maskUnits="userSpaceOnUse" x="44" y="79" width="112" height="79" id="mask-6_2_"><g filter="url(#Adobe_OpacityMaskFilter_3_)"><path id="path-5_2_" class="st2" d="M124 144.6V163h4c39.8 0 72 32.2 72 72v9H0v-9c0-39.8 32.2-72 72-72h4v-18.4c-17.2-8.2-29.6-24.9-31.7-44.7C38.5 99.1 34 94.1 34 88V74c0-5.9 4.3-10.9 10-11.8V56c0-30.9 25.1-56 56-56s56 25.1 56 56v6.2c5.7 1 10 5.9 10 11.8v14c0 6.1-4.5 11.1-10.3 11.9-2.1 19.8-14.5 36.5-31.7 44.7z"/></g></mask><path id="Neck-Shadow" d="M156 79v23c0 30.9-25.1 56-56 56s-56-25.1-56-56V79v15c0 30.9 25.1 56 56 56s56-25.1 56-56V79z" mask="url(#mask-6_2_)" fill-rule="evenodd" clip-rule="evenodd" fill-opacity=".1"/></g><g transform="translate(0 170)"><path class="st0" d="M166 29.3c37 3 66 34 66 71.8v8.9H32v-8.9C32 63 61.6 31.8 99 29.2v1.1c0 11.9 15 21.5 33.5 21.5S166 42.2 166 30.3v-1z" id="Clothes"/><defs><filter id="Adobe_OpacityMaskFilter_4_" filterUnits="userSpaceOnUse" x="0" y="0" width="264" height="110"><feColorMatrix values="1 0 0 0 0 0 1 0 0 0 0 0 1 0 0 0 0 0 1 0"/></filter></defs><mask maskUnits="userSpaceOnUse" x="0" y="0" width="264" height="110" id="react-mask-952_1_"><g filter="url(#Adobe_OpacityMaskFilter_4_)"><path id="react-path-951_1_" class="st2" d="M166 29.3c37 3 66 34 66 71.8v8.9H32v-8.9C32 63 61.6 31.8 99 29.2v1.1c0 11.9 15 21.5 33.5 21.5S166 42.2 166 30.3v-1z"/></g></mask><g mask="url(#react-mask-952_1_)"><path class="st2" d="M0 0h264v110H0z"/></g><defs><filter id="Adobe_OpacityMaskFilter_5_" filterUnits="userSpaceOnUse" x="92.9" y="4.9" width="79.3" height="53.8"><feColorMatrix values="1 0 0 0 0 0 1 0 0 0 0 0 1 0 0 0 0 0 1 0"/></filter></defs><mask maskUnits="userSpaceOnUse" x="92.9" y="4.9" width="79.3" height="53.8" id="react-mask-952_2_"><g filter="url(#Adobe_OpacityMaskFilter_5_)"><path id="react-path-951_2_" class="st2" d="M166 29.3c37 3 66 34 66 71.8v8.9H32v-8.9C32 63 61.6 31.8 99 29.2v1.1c0 11.9 15 21.5 33.5 21.5S166 42.2 166 30.3v-1z"/></g></mask><g id="Shadowy" opacity=".6" mask="url(#react-mask-952_2_)"><ellipse class="st17" cx="40.5" cy="27.8" rx="39.6" ry="26.9" transform="translate(92 4)"/></g></g><g id="Face"><g transform="translate(78 134)"><path d="M35.1 15.1C36.2 24.6 44.2 32 54 32c9.8 0 17.9-7.4 18.9-17 .1-.8-.8-2-1.8-2h-34c-1.1 0-2.1 1.2-2 2.1z" fill-rule="evenodd" clip-rule="evenodd" fill-opacity=".7" id="Mouth"/><defs><filter id="Adobe_OpacityMaskFilter_6_" filterUnits="userSpaceOnUse" x="39" y="2" width="31" height="16"><feColorMatrix values="1 0 0 0 0 0 1 0 0 0 0 0 1 0 0 0 0 0 1 0"/></filter></defs><mask maskUnits="userSpaceOnUse" x="39" y="2" width="31" height="16" id="react-mask-934_1_"><g filter="url(#Adobe_OpacityMaskFilter_6_)"><path id="react-path-933_1_" class="st2" d="M35.1 15.1C36.2 24.6 44.2 32 54 32c9.8 0 17.9-7.4 18.9-17 .1-.8-.8-2-1.8-2h-34c-1.1 0-2.1 1.2-2 2.1z"/></g></mask><path id="Teeth" d="M44 2h21c2.8 0 5 2.2 5 5v6c0 2.8-2.2 5-5 5H44c-2.8 0-5-2.2-5-5V7c0-2.8 2.2-5 5-5z" mask="url(#react-mask-934_1_)" fill-rule="evenodd" clip-rule="evenodd" fill="#fff"/><defs><filter id="Adobe_OpacityMaskFilter_7_" filterUnits="userSpaceOnUse" x="38" y="24" width="32" height="22"><feColorMatrix values="1 0 0 0 0 0 1 0 0 0 0 0 1 0 0 0 0 0 1 0"/></filter></defs><mask maskUnits="userSpaceOnUse" x="38" y="24" width="32" height="22" id="react-mask-934_2_"><g filter="url(#Adobe_OpacityMaskFilter_7_)"><path id="react-path-933_2_" class="st2" d="M35.1 15.1C36.2 24.6 44.2 32 54 32c9.8 0 17.9-7.4 18.9-17 .1-.8-.8-2-1.8-2h-34c-1.1 0-2.1 1.2-2 2.1z"/></g></mask><g id="Tongue" mask="url(#react-mask-934_2_)"><g transform="translate(38 24)"><circle class="st23" cx="11" cy="11" r="11"/><circle class="st23" cx="21" cy="11" r="11"/></g></g></g><g transform="translate(104 122)"><path id="Nose" class="st17" d="M16 8c0 4.4 5.4 8 12 8s12-3.6 12-8"/></g><g transform="translate(76 90)"><path id="Squint" class="st24" d="M16.2 22.4C18 18.6 22.2 16 27 16c4.8 0 9 2.6 10.8 6.4.6 1.1-.2 2-1 1.4-2.5-2.1-5.9-3.4-9.8-3.4-3.7 0-7.1 1.2-9.6 3.2-.9.7-1.8 0-1.2-1.2z"/><path class="st24" d="M74.2 22.4C76 18.6 80.2 16 85 16c4.8 0 9 2.6 10.8 6.4.6 1.1-.2 2-1 1.4-2.5-2.1-5.9-3.4-9.8-3.4-3.7 0-7.1 1.2-9.6 3.2-.9.7-1.8 0-1.2-1.2z"/></g><g transform="translate(76 82)"><path id="Eyebrow" class="st24" d="M26.5 6.1c-5.8.3-15.2 4.5-15 10.3 0 .2.3.3.4.1 2.8-3 22.3-5.9 29.2-4.4.6.1 1.1-.5.7-.9-3.3-3.7-10.1-5.3-15.3-5.1"/><path class="st24" d="M86.5 6.1c5.8.3 15.2 4.5 15 10.3 0 .2-.3.3-.4.1-2.8-3-22.3-5.9-29.2-4.4-.6.1-1.1-.5-.7-.9 3.3-3.7 10.1-5.3 15.3-5.1"/></g></g><g id="Top"><defs><filter id="Adobe_OpacityMaskFilter_8_" filterUnits="userSpaceOnUse" x="-1" y="0" width="264" height="280"><feColorMatrix values="1 0 0 0 0 0 1 0 0 0 0 0 1 0 0 0 0 0 1 0"/></filter></defs><mask maskUnits="userSpaceOnUse" x="-1" y="0" width="264" height="280" id="react-mask-925_1_"><g filter="url(#Adobe_OpacityMaskFilter_8_)"><path id="react-path-927_1_" class="st2" d="M0 0h264v280H0z"/></g></mask><g mask="url(#react-mask-925_1_)"><g transform="translate(-1)"><path d="M183.7 38.9c5.4-5 6.7-15 3.6-21.5-3.8-8-11.4-9-18.7-5.5-6.9 3.3-13.1 4.4-20.6 2.8-7.3-1.5-14.1-4.3-21.6-4.7-12.4-.7-24.4 3.9-32.8 13.1-1.6 1.8-2.9 3.8-4.1 5.8-1 1.6-2.1 3.4-2.5 5.3-.2.9.2 3.1-.3 3.8-.5.8-2.3 1.5-3.1 2.1-1.6 1.2-2.9 2.5-4.2 4-2.7 3.2-4.1 6.6-5.4 10.6-4.1 13.2-4.5 29 .9 42 .7 1.7 2.9 5.4 4.2 1.6.3-.7-.3-3.2-.3-3.9 0-2.7 1.5-20.7 8-30.8 2.1-3.3 12-15.6 14-15.7 1.1 1.7 11.9 12.5 39.9 11.2 12.7-.6 22.4-6.3 24.7-8.7 1 5.5 13 13.8 14.8 17.2 5.3 9.8 6.4 30.3 8.4 30.3s3.5-5.2 3.9-6.2c3.1-7.4 3.6-16.6 3.3-24.6-.3-10.1-4.5-21.2-12.1-28.2z" fill-rule="evenodd" clip-rule="evenodd" fill="#28354b" id="Short-Hair"/><defs><filter id="Adobe_OpacityMaskFilter_9_" filterUnits="userSpaceOnUse" x="0" y="0" width="264" height="280"><feColorMatrix values="1 0 0 0 0 0 1 0 0 0 0 0 1 0 0 0 0 0 1 0"/></filter></defs><mask maskUnits="userSpaceOnUse" x="0" y="0" width="264" height="280" id="react-mask-924_1_"><g filter="url(#Adobe_OpacityMaskFilter_9_)"><path id="react-path-926_1_" class="st2" d="M183.7 38.9c5.4-5 6.7-15 3.6-21.5-3.8-8-11.4-9-18.7-5.5-6.9 3.3-13.1 4.4-20.6 2.8-7.3-1.5-14.1-4.3-21.6-4.7-12.4-.7-24.4 3.9-32.8 13.1-1.6 1.8-2.9 3.8-4.1 5.8-1 1.6-2.1 3.4-2.5 5.3-.2.9.2 3.1-.3 3.8-.5.8-2.3 1.5-3.1 2.1-1.6 1.2-2.9 2.5-4.2 4-2.7 3.2-4.1 6.6-5.4 10.6-4.1 13.2-4.5 29 .9 42 .7 1.7 2.9 5.4 4.2 1.6.3-.7-.3-3.2-.3-3.9 0-2.7 1.5-20.7 8-30.8 2.1-3.3 12-15.6 14-15.7 1.1 1.7 11.9 12.5 39.9 11.2 12.7-.6 22.4-6.3 24.7-8.7 1 5.5 13 13.8 14.8 17.2 5.3 9.8 6.4 30.3 8.4 30.3s3.5-5.2 3.9-6.2c3.1-7.4 3.6-16.6 3.3-24.6-.3-10.1-4.5-21.2-12.1-28.2z"/></g></mask><g mask="url(#react-mask-924_1_)"><path fill-rule="evenodd" clip-rule="evenodd" fill="#4a312c" d="M0 0h264v280H0z"/></g></g></g></g></g></svg>